<svg width="827" height="194" viewBox="0 0 827 194" fill="none" xmlns="http://www.w3.org/2000/svg">
<g clip-path="url(#clip0_536_223)">
<path d="M238.73 79.68C242.33 79.68 245.25 76.76 245.25 73.16C245.25 69.56 242.33 66.64 238.73 66.64C235.13 66.64 232.21 69.56 232.21 73.16C232.21 76.76 235.13 79.68 238.73 79.68Z" fill="url(#paint0_linear_536_223)"/>
<path d="M251.12 85.88C249.42 90.91 244.74 93.79 239.45 93.81C234.11 93.84 229.25 90.95 227.54 85.88C227.68 85.65 229.7 82.41 233.57 80.53C234.07 80.29 234.66 80.35 235.1 80.68C236.18 81.48 237.52 81.95 238.97 81.95C240.51 81.95 241.92 81.42 243.03 80.53C243.45 80.2 244.02 80.12 244.51 80.32C246.77 81.23 249.32 82.88 251.11 85.88H251.12Z" fill="url(#paint1_linear_536_223)"/>
<path d="M255.64 62.18C257.52 74 259.35 85.8 261.16 97.57C261.21 97.91 262.2 102.57 256.9 103.41L228.2 107.89C225.41 108.33 222.8 106.42 222.36 103.63L216.1 63.58C215.67 60.79 217.57 58.18 220.36 57.74C228.14 56.31 236.12 55.03 244.29 53.89L255.63 62.17L255.64 62.18Z" stroke="url(#paint2_linear_536_223)" stroke-linecap="round" stroke-linejoin="round"/>
<path d="M245.31 60.6501L244.32 54.0501C244.32 53.9901 244.38 53.9501 244.43 53.9801L255.5 62.0601C255.5 62.0601 255.53 62.1801 255.47 62.1901L248.74 63.1901C247.09 63.4401 245.54 62.2901 245.31 60.6401V60.6501Z" stroke="url(#paint3_linear_536_223)" stroke-linecap="round" stroke-linejoin="round"/>
<path d="M159.73 85.62H158.23" stroke="url(#paint4_linear_536_223)" stroke-linecap="round" stroke-linejoin="round"/>
<path d="M237.57 149.28C241.22 149.92 244.7 147.48 245.34 143.83C245.98 140.18 243.54 136.7 239.89 136.06C236.24 135.42 232.76 137.86 232.12 141.51C231.48 145.16 233.92 148.64 237.57 149.28Z" fill="url(#paint5_linear_536_223)"/>
<path d="M249.02 157.76C246.4 162.55 241.16 164.64 235.78 163.73C230.37 162.81 225.95 159.03 225.12 153.58C225.3 153.37 227.92 150.45 232.17 149.23C232.72 149.07 233.3 149.25 233.7 149.66C234.65 150.66 235.93 151.38 237.4 151.64C238.96 151.91 240.48 151.62 241.77 150.92C242.25 150.66 242.84 150.67 243.31 150.97C245.44 152.3 247.72 154.42 249.02 157.76V157.76Z" fill="url(#paint6_linear_536_223)"/>
<path d="M248.89 146.18C248.37 146.11 247.99 145.62 248.07 145.08C248.14 144.54 248.63 144.18 249.17 144.26C249.71 144.33 250.07 144.82 249.99 145.36C249.92 145.9 249.43 146.26 248.89 146.18Z" fill="url(#paint7_linear_536_223)"/>
<path d="M252.21 140.24C251.78 141.11 251.03 141.45 250.6 141.55C250.16 141.67 250.12 141.95 250.12 141.95L249.96 143.06C249.96 143.06 249.74 143.73 249.21 143.57C248.69 143.41 248.69 143.07 248.69 143.07C248.69 143.07 248.71 142.65 248.88 141.63C249.05 140.61 250.49 140.24 250.49 140.24C251.34 139.85 251.62 138.14 250.24 137.81C248.86 137.47 248.59 138.91 248.59 138.91C248.59 139.37 247.68 139.77 247.42 139.11C247.16 138.46 247.73 137.55 247.73 137.55C247.73 137.55 248.49 136.35 249.96 136.45C251.45 136.54 252.05 137.62 252.05 137.62C252.47 138.37 252.65 139.36 252.22 140.24H252.2H252.21Z" fill="url(#paint8_linear_536_223)"/>
<path d="M614.48 141.55C618.13 140.92 620.58 137.44 619.94 133.79C619.31 130.14 615.83 127.69 612.18 128.33C608.53 128.96 606.08 132.44 606.72 136.09C607.35 139.74 610.83 142.19 614.48 141.55Z" fill="url(#paint9_linear_536_223)"/>
<path d="M628.12 145.64C627.28 151.03 623.05 154.77 617.69 155.74C612.29 156.71 606.85 154.64 604.22 149.8C604.32 149.54 605.8 145.9 609.39 143.32C609.85 142.99 610.46 142.95 610.97 143.21C612.2 143.83 613.65 144.07 615.12 143.82C616.68 143.55 618.01 142.76 618.99 141.67C619.35 141.26 619.91 141.07 620.46 141.19C622.92 141.72 625.78 142.95 628.13 145.65L628.12 145.64Z" fill="url(#paint10_linear_536_223)"/>
<path d="M632.76 152.22L642.26 156.88" stroke="url(#paint11_linear_536_223)" stroke-width="3" stroke-linecap="round" stroke-linejoin="round"/>
<path d="M618.49 161.05C629.02 159.22 636.07 149.2 634.24 138.67C632.41 128.14 622.39 121.09 611.86 122.92C601.33 124.75 594.28 134.77 596.11 145.3C597.94 155.83 607.96 162.88 618.49 161.05Z" stroke="url(#paint12_linear_536_223)" stroke-linecap="round" stroke-linejoin="round"/>
<path d="M616.4 85.87C620.07 86.38 623.46 83.81 623.97 80.14C624.48 76.47 621.91 73.08 618.24 72.58C614.57 72.07 611.18 74.64 610.67 78.31C610.16 81.98 612.73 85.37 616.4 85.87V85.87Z" fill="url(#paint13_linear_536_223)"/>
<path d="M628.15 93.93C625.71 98.81 620.54 101.09 615.14 100.37C609.7 99.65 605.15 96.02 604.12 90.61C604.29 90.39 606.81 87.38 611.01 86.01C611.55 85.83 612.14 85.98 612.55 86.38C613.54 87.34 614.84 88.02 616.31 88.22C617.88 88.44 619.39 88.09 620.65 87.35C621.12 87.07 621.71 87.06 622.19 87.35C624.37 88.6 626.72 90.64 628.14 93.94L628.15 93.93Z" fill="url(#paint14_linear_536_223)"/>
<path d="M633.72 70.85C633.72 70.85 637.69 74.33 635.75 81.06C634.1 86.8 638.5 89.63 638.5 89.63" stroke="url(#paint15_linear_536_223)" stroke-linecap="round" stroke-linejoin="round"/>
<path d="M628.72 106.56C628.72 106.56 633.49 104.29 633.44 97.28C633.41 91.31 638.41 89.78 638.41 89.78" stroke="url(#paint16_linear_536_223)" stroke-linecap="round" stroke-linejoin="round"/>
<path d="M602.68 66.5601C602.68 66.5601 597.92 68.8301 597.96 75.8401C597.99 81.8101 592.99 83.3401 592.99 83.3401" stroke="url(#paint17_linear_536_223)" stroke-linecap="round" stroke-linejoin="round"/>
<path d="M597.82 102.29C597.82 102.29 593.85 98.81 595.79 92.08C597.44 86.34 593.04 83.51 593.04 83.51" stroke="url(#paint18_linear_536_223)" stroke-linecap="round" stroke-linejoin="round"/>
<path opacity="0.3" d="M500.92 54.978L348.933 55.6791C346.237 55.6937 344.051 57.8918 344.066 60.5874L344.23 96.6631C344.243 99.3686 346.442 101.545 349.138 101.53L501.125 100.829C503.821 100.814 506.007 98.6164 505.992 95.9208L505.828 59.8451C505.815 57.1396 503.616 54.9634 500.92 54.978V54.978Z" fill="url(#paint19_linear_536_223)"/>
<path d="M501.792 55.1078L347.984 55.8129C345.852 55.825 344.136 57.5587 344.138 59.6901L344.313 97.6165C344.325 99.7489 346.059 101.465 348.19 101.463L501.997 100.758C504.13 100.746 505.846 99.012 505.844 96.8806L505.669 58.9541C505.657 56.8217 503.923 55.1056 501.792 55.1078V55.1078Z" stroke="url(#paint20_linear_536_223)" stroke-miterlimit="10"/>
<path d="M358.986 70.4438C360.938 70.4332 362.508 68.8454 362.497 66.8941C362.487 64.9428 360.899 63.3723 358.948 63.3829C356.996 63.3935 355.426 64.9814 355.436 66.9327C355.447 68.884 357.035 70.4545 358.986 70.4438Z" stroke="url(#paint21_linear_536_223)" stroke-linecap="round" stroke-linejoin="round"/>
<path d="M370.13 70.3926C372.081 70.3819 373.652 68.7941 373.641 66.8428C373.63 64.8915 372.043 63.321 370.091 63.3316C368.14 63.3423 366.569 64.9301 366.58 66.8814C366.591 68.8327 368.179 70.4032 370.13 70.3926Z" stroke="url(#paint22_linear_536_223)" stroke-linecap="round" stroke-linejoin="round"/>
<path d="M381.283 70.342C383.234 70.3314 384.805 68.7436 384.794 66.7923C384.784 64.841 383.196 63.2705 381.245 63.2811C379.293 63.2917 377.723 64.8796 377.733 66.8309C377.744 68.7822 379.332 70.3527 381.283 70.342Z" stroke="url(#paint23_linear_536_223)" stroke-linecap="round" stroke-linejoin="round"/>
<path opacity="0.3" d="M501.203 116.901L349.216 117.602C346.52 117.617 344.334 119.815 344.349 122.511L344.513 158.586C344.526 161.292 346.725 163.468 349.421 163.453L501.409 162.752C504.104 162.738 506.29 160.54 506.276 157.844L506.112 121.768C506.098 119.063 503.899 116.887 501.203 116.901Z" fill="url(#paint24_linear_536_223)"/>
<path d="M502.076 117.021L348.268 117.726C346.136 117.738 344.42 119.472 344.422 121.603L344.597 159.53C344.609 161.662 346.343 163.378 348.474 163.376L502.282 162.671C504.414 162.659 506.13 160.925 506.128 158.794L505.953 120.867C505.941 118.735 504.207 117.019 502.076 117.021V117.021Z" stroke="url(#paint25_linear_536_223)" stroke-miterlimit="10"/>
<path d="M359.27 132.357C361.222 132.347 362.792 130.759 362.782 128.807C362.771 126.856 361.183 125.286 359.232 125.296C357.281 125.307 355.71 126.895 355.721 128.846C355.731 130.797 357.319 132.368 359.27 132.357Z" stroke="url(#paint26_linear_536_223)" stroke-linecap="round" stroke-linejoin="round"/>
<path d="M370.414 132.306C372.366 132.295 373.936 130.707 373.926 128.756C373.915 126.805 372.327 125.234 370.376 125.245C368.425 125.255 366.854 126.843 366.865 128.794C366.875 130.746 368.463 132.316 370.414 132.306Z" stroke="url(#paint27_linear_536_223)" stroke-linecap="round" stroke-linejoin="round"/>
<path d="M381.568 132.255C383.519 132.245 385.09 130.657 385.079 128.706C385.068 126.754 383.481 125.184 381.529 125.194C379.578 125.205 378.007 126.793 378.018 128.744C378.029 130.695 379.616 132.266 381.568 132.255Z" stroke="url(#paint28_linear_536_223)" stroke-linecap="round" stroke-linejoin="round"/>
<path opacity="0.24" d="M132.15 148.3C132.15 150.29 130.59 151.91 128.68 151.91H16.3902C14.4802 151.91 12.9302 150.29 12.9302 148.3V79.52C12.9302 77.53 14.4802 75.9 16.3902 75.9H128.68C130.59 75.9 132.15 77.53 132.15 79.52V148.3Z" fill="url(#paint29_linear_536_223)"/>
<path d="M132.07 147.97C132.07 149.96 130.51 151.58 128.6 151.58H16.3199C14.4099 151.58 12.8599 149.96 12.8599 147.97V79.1801C12.8599 77.1901 14.4099 75.5601 16.3199 75.5601H128.61C130.52 75.5601 132.08 77.1901 132.08 79.1801V147.97H132.07Z" stroke="url(#paint30_linear_536_223)" stroke-miterlimit="10"/>
<path d="M25.7902 89.66C27.7902 89.66 29.4202 88.03 29.4202 86.03C29.4202 84.03 27.7902 82.4 25.7902 82.4C23.7902 82.4 22.1602 84.03 22.1602 86.03C22.1602 88.03 23.7902 89.66 25.7902 89.66Z" stroke="url(#paint31_linear_536_223)" stroke-linecap="round" stroke-linejoin="round"/>
<path d="M36.17 89.66C38.17 89.66 39.8 88.03 39.8 86.03C39.8 84.03 38.17 82.4 36.17 82.4C34.17 82.4 32.54 84.03 32.54 86.03C32.54 88.03 34.17 89.66 36.17 89.66Z" stroke="url(#paint32_linear_536_223)" stroke-linecap="round" stroke-linejoin="round"/>
<path d="M46.5402 89.66C48.5402 89.66 50.1702 88.03 50.1702 86.03C50.1702 84.03 48.5402 82.4 46.5402 82.4C44.5402 82.4 42.9102 84.03 42.9102 86.03C42.9102 88.03 44.5402 89.66 46.5402 89.66Z" stroke="url(#paint33_linear_536_223)" stroke-linecap="round" stroke-linejoin="round"/>
<path d="M41.4401 166.5C41.6501 167.49 41.1201 168.46 40.2401 168.65L14.2301 174.28C13.3501 174.47 12.4601 173.81 12.2501 172.82L1.28008 122.15C1.06008 121.16 1.60008 120.19 2.48008 120L28.4901 114.37C29.3701 114.18 30.2601 114.84 30.4701 115.83L41.4401 166.5V166.5Z" fill="black"/>
<path opacity="0.3" d="M41.5001 166.51C41.7101 167.5 41.1801 168.47 40.3001 168.66L14.2901 174.29C13.4101 174.48 12.5201 173.82 12.3101 172.83L1.34014 122.16C1.12014 121.17 1.66014 120.2 2.54014 120.01L28.5501 114.38C29.4301 114.19 30.3201 114.85 30.5301 115.84L41.5001 166.51V166.51Z" fill="url(#paint34_linear_536_223)"/>
<path d="M41.2101 166.81C41.4201 167.8 40.8901 168.77 40.0101 168.96L14.0001 174.59C13.1201 174.78 12.2301 174.12 12.0201 173.13L1.0501 122.46C0.830096 121.47 1.3701 120.5 2.2501 120.31L28.2601 114.68C29.1401 114.49 30.0301 115.15 30.2401 116.14L41.2101 166.81V166.81Z" stroke="url(#paint35_linear_536_223)" stroke-miterlimit="10"/>
<path d="M18.0998 118.1L10.3398 119.78L10.4998 120.52L18.2598 118.84L18.0998 118.1Z" fill="#023F61"/>
<path opacity="0.5" d="M826.04 145.39C826.04 154.69 807.64 164.4 783.99 164.4C760.34 164.4 740.41 154.69 740.41 145.39C740.41 136.09 759.58 128.55 783.23 128.55C806.88 128.55 826.04 136.09 826.04 145.39Z" fill="url(#paint36_linear_536_223)"/>
<path opacity="0.5" d="M825.66 128.8C825.66 138.1 807.26 147.5 783.61 147.5C759.96 147.5 740.03 138.1 740.03 128.8C740.03 119.5 759.2 111.96 782.85 111.96C806.5 111.96 825.66 119.5 825.66 128.8V128.8Z" fill="url(#paint37_linear_536_223)"/>
<path opacity="0.5" d="M826.04 112.39C826.04 121.69 806.88 130.88 783.23 130.88C759.58 130.88 740.41 121.69 740.41 112.39C740.41 103.09 759.58 95.55 783.23 95.55C806.88 95.55 826.04 103.09 826.04 112.39Z" fill="url(#paint38_linear_536_223)"/>
<path opacity="0.5" d="M826.04 95.94C826.04 105.24 806.88 114.43 783.23 114.43C759.58 114.43 740.41 105.24 740.41 95.94C740.41 86.64 759.58 79.1 783.23 79.1C806.88 79.1 826.04 86.64 826.04 95.94Z" fill="url(#paint39_linear_536_223)"/>
<path d="M740.3 110.98C740.3 113.96 741.73 116.57 744.06 119.15C747.12 122.51 751.95 125.42 758 127.55L758.02 127.58C765.09 130.09 773.81 131.57 783.23 131.57C792.65 131.57 801.38 130.09 808.47 127.58C808.47 127.58 808.5 127.58 808.5 127.55C814.54 125.42 819.4 122.53 822.59 119.29C826.11 115.72 826.16 112.26 825.99 112.74C825.45 115.08 823.31 117.29 820.95 119.42C817.01 122.95 811.02 125.89 803.76 127.82C801.58 128.4 799.27 128.87 796.89 129.27C792.6 129.97 788.02 130.35 783.23 130.35C778.44 130.35 773.88 129.97 769.6 129.27C767.19 128.87 764.91 128.39 762.73 127.82C755.46 125.89 749.47 122.96 745.54 119.42C743.18 117.29 741.58 114.96 740.88 112.48C740.7 112 740.6 111.5 740.55 111.03C740.45 111.51 740.3 110.48 740.3 110.98V110.98Z" fill="url(#paint40_linear_536_223)"/>
<path d="M740.3 127.18C740.3 130.16 741.73 132.77 744.06 135.35C747.12 138.71 751.95 141.62 758 143.75L758.02 143.78C765.09 146.29 773.81 147.77 783.23 147.77C792.65 147.77 801.38 146.29 808.47 143.78C808.47 143.78 808.5 143.78 808.5 143.75C814.54 141.62 819.58 138.94 822.64 135.58C824.97 133 825.8 131.02 825.67 128.09C825.65 127.59 825.52 129.42 825.35 129.9C824.65 132.38 823.49 133.66 821.13 135.79C817.19 139.32 811.03 142.09 803.76 144.02C801.58 144.6 799.27 145.07 796.89 145.47C792.6 146.17 788.02 146.55 783.23 146.55C778.44 146.55 773.88 146.17 769.6 145.47C767.19 145.07 764.91 144.59 762.73 144.02C755.46 142.09 749.47 139.16 745.54 135.62C743.18 133.49 741.58 131.16 740.88 128.68C740.7 128.2 740.6 127.7 740.55 127.23C740.45 127.71 740.3 126.68 740.3 127.18V127.18Z" fill="url(#paint41_linear_536_223)"/>
<path d="M740.37 143.95C740.37 146.93 741.8 149.54 744.13 152.12C747.19 155.48 752.02 158.39 758.07 160.52L758.09 160.55C765.16 163.06 773.88 164.54 783.3 164.54C792.72 164.54 801.45 163.06 808.54 160.55C808.54 160.55 808.57 160.55 808.57 160.52C814.61 158.39 820.28 155.56 823.34 152.21C825.67 149.63 826.12 146.09 825.94 146.57C825.24 149.05 823.67 150.69 821.32 152.82C817.38 156.35 811.11 158.86 803.84 160.79C801.66 161.37 799.35 161.84 796.97 162.24C792.68 162.94 788.1 163.32 783.31 163.32C778.52 163.32 773.96 162.94 769.68 162.24C767.27 161.84 764.99 161.36 762.81 160.79C755.54 158.86 749.55 155.93 745.62 152.39C743.26 150.26 741.66 147.93 740.96 145.45C740.78 144.97 740.68 144.47 740.63 144C740.53 144.48 740.38 143.45 740.38 143.95H740.37Z" fill="url(#paint42_linear_536_223)"/>
<path d="M740.05 81.21C740.05 84.19 741.48 86.8 743.81 89.38C746.87 92.74 751.7 95.65 757.75 97.78L757.77 97.81C764.84 100.32 773.56 101.8 782.98 101.8C792.4 101.8 801.13 100.32 808.22 97.81C808.22 97.81 808.25 97.81 808.25 97.78C814.29 95.65 819.13 92.74 822.19 89.38C824.52 86.8 825.82 83.97 825.82 80.98C825.82 80.48 825.59 80.09 825.49 79.61C825.44 80.09 825.54 80.5 825.37 80.98C824.67 83.46 823.06 85.79 820.71 87.92C816.77 91.45 810.78 94.39 803.52 96.32C801.34 96.9 799.03 97.37 796.65 97.77C792.36 98.47 787.78 98.85 782.99 98.85C778.2 98.85 773.64 98.47 769.36 97.77C766.95 97.37 764.67 96.89 762.49 96.32C755.22 94.39 749.23 91.46 745.3 87.92C742.94 85.79 741.34 83.46 740.64 80.98C740.46 80.5 740.36 80 740.31 79.53C740.21 80.01 740.06 80.7 740.06 81.21H740.05Z" fill="url(#paint43_linear_536_223)"/>
<path opacity="0.5" d="M740.03 79.47C740.03 90.97 759.19 100.28 782.84 100.28C806.49 100.28 825.66 90.96 825.66 79.47C825.66 67.98 806.49 58.65 782.84 58.65C759.19 58.65 740.03 67.97 740.03 79.47Z" fill="url(#paint44_linear_536_223)"/>
<path d="M740.3 94.7799C740.3 97.7599 741.73 100.37 744.06 102.95C747.12 106.31 751.95 109.22 758 111.35L758.02 111.38C765.09 113.89 773.81 115.37 783.23 115.37C792.65 115.37 801.38 113.89 808.47 111.38C808.47 111.38 808.5 111.38 808.5 111.35C814.54 109.22 819.17 106.11 822.44 102.95C826 99.5199 826.2 96.2399 826.02 96.7099C825.25 99.0599 823.31 101.08 820.96 103.21C817.02 106.74 811.03 109.68 803.77 111.61C801.59 112.19 799.28 112.66 796.9 113.06C792.61 113.76 788.03 114.14 783.24 114.14C778.45 114.14 773.89 113.76 769.61 113.06C767.2 112.66 764.92 112.18 762.74 111.61C755.47 109.68 749.48 106.75 745.55 103.21C743.19 101.08 741.59 98.7499 740.89 96.2699C740.71 95.7899 740.61 95.2899 740.56 94.8199C740.46 95.2999 740.31 94.2699 740.31 94.7699H740.3V94.7799Z" fill="url(#paint45_linear_536_223)"/>
<path d="M157.39 85.58L170.64 93.23V77.92L157.39 85.58Z" fill="#9104FF"/>
<path d="M522.65 85.12L535.9 92.77V77.47L522.65 85.12Z" fill="#9104FF"/>
<path d="M330.47 146.65L317.22 139V154.31L330.47 146.65Z" fill="#9104FF"/>
<path d="M720.26 147.65L707 140V155.31L720.26 147.65Z" fill="#9104FF"/>
<path d="M422.571 66.9034L490.362 66.5495" stroke="#9104FF" stroke-linecap="round" stroke-linejoin="round"/>
<path d="M422.881 77.8725L490.683 77.5197" stroke="#9104FF" stroke-linecap="round" stroke-linejoin="round"/>
<path d="M422.915 88.6021L490.716 88.2493" stroke="#9104FF" stroke-linecap="round" stroke-linejoin="round"/>
<path d="M422.486 128.99L490.278 128.626" stroke="#9104FF" stroke-linecap="round" stroke-linejoin="round"/>
<path d="M422.798 139.949L490.599 139.596" stroke="#9104FF" stroke-linecap="round" stroke-linejoin="round"/>
<path d="M422.831 150.679L490.622 150.325" stroke="#9104FF" stroke-linecap="round" stroke-linejoin="round"/>
<rect x="172" y="85" width="3" height="1" rx="0.5" fill="#9105FF"/>
<rect x="176" y="85" width="3" height="1" rx="0.5" fill="#9105FF"/>
<rect x="180" y="85" width="3" height="1" rx="0.5" fill="#9105FF"/>
<rect x="184" y="85" width="3" height="1" rx="0.5" fill="#9105FF"/>
<rect x="188" y="85" width="3" height="1" rx="0.5" fill="#9105FF"/>
<rect x="192" y="85" width="3" height="1" rx="0.5" fill="#9105FF"/>
<rect x="196" y="85" width="3" height="1" rx="0.5" fill="#9105FF"/>
<rect x="200" y="85" width="3" height="1" rx="0.5" fill="#9105FF"/>
<rect x="204" y="85" width="3" height="1" rx="0.5" fill="#9105FF"/>
<rect x="208" y="85" width="3" height="1" rx="0.5" fill="#9105FF"/>
<rect x="536" y="85" width="3" height="1" rx="0.5" fill="#9105FF"/>
<rect x="540" y="85" width="3" height="1" rx="0.5" fill="#9105FF"/>
<rect x="544" y="85" width="3" height="1" rx="0.5" fill="#9105FF"/>
<rect x="548" y="85" width="3" height="1" rx="0.5" fill="#9105FF"/>
<rect x="552" y="85" width="3" height="1" rx="0.5" fill="#9105FF"/>
<rect x="556" y="85" width="3" height="1" rx="0.5" fill="#9105FF"/>
<rect x="560" y="85" width="3" height="1" rx="0.5" fill="#9105FF"/>
<rect x="564" y="85" width="3" height="1" rx="0.5" fill="#9105FF"/>
<rect x="568" y="85" width="3" height="1" rx="0.5" fill="#9105FF"/>
<rect x="572" y="85" width="3" height="1" rx="0.5" fill="#9105FF"/>
<rect x="536" y="147" width="3" height="1" rx="0.5" fill="#9105FF"/>
<rect x="540" y="147" width="3" height="1" rx="0.5" fill="#9105FF"/>
<rect x="544" y="147" width="3" height="1" rx="0.5" fill="#9105FF"/>
<rect x="548" y="147" width="3" height="1" rx="0.5" fill="#9105FF"/>
<rect x="552" y="147" width="3" height="1" rx="0.5" fill="#9105FF"/>
<rect x="556" y="147" width="3" height="1" rx="0.5" fill="#9105FF"/>
<rect x="560" y="147" width="3" height="1" rx="0.5" fill="#9105FF"/>
<rect x="564" y="147" width="3" height="1" rx="0.5" fill="#9105FF"/>
<rect x="568" y="147" width="3" height="1" rx="0.5" fill="#9105FF"/>
<rect x="572" y="147" width="3" height="1" rx="0.5" fill="#9105FF"/>
<rect x="576" y="147" width="3" height="1" rx="0.5" fill="#9105FF"/>
<rect x="668" y="85" width="3" height="1" rx="0.5" fill="#9105FF"/>
<rect x="664" y="85" width="3" height="1" rx="0.5" fill="#9105FF"/>
<rect x="672" y="85" width="3" height="1" rx="0.5" fill="#9105FF"/>
<rect x="676" y="85" width="3" height="1" rx="0.5" fill="#9105FF"/>
<rect x="680" y="85" width="3" height="1" rx="0.5" fill="#9105FF"/>
<rect x="684" y="85" width="3" height="1" rx="0.5" fill="#9105FF"/>
<rect x="688" y="85" width="3" height="1" rx="0.5" fill="#9105FF"/>
<rect x="692" y="85" width="3" height="1" rx="0.5" fill="#9105FF"/>
<rect x="696" y="85" width="3" height="1" rx="0.5" fill="#9105FF"/>
<rect x="700" y="85" width="3" height="1" rx="0.5" fill="#9105FF"/>
<rect x="704" y="85" width="3" height="1" rx="0.5" fill="#9105FF"/>
<rect x="708" y="85" width="3" height="1" rx="0.5" fill="#9105FF"/>
<rect x="668" y="147" width="3" height="1" rx="0.5" fill="#9105FF"/>
<rect x="672" y="147" width="3" height="1" rx="0.5" fill="#9105FF"/>
<rect x="676" y="147" width="3" height="1" rx="0.5" fill="#9105FF"/>
<rect x="680" y="147" width="3" height="1" rx="0.5" fill="#9105FF"/>
<rect x="684" y="147" width="3" height="1" rx="0.5" fill="#9105FF"/>
<rect x="688" y="147" width="3" height="1" rx="0.5" fill="#9105FF"/>
<rect x="692" y="147" width="3" height="1" rx="0.5" fill="#9105FF"/>
<rect x="696" y="147" width="3" height="1" rx="0.5" fill="#9105FF"/>
<rect x="700" y="147" width="3" height="1" rx="0.5" fill="#9105FF"/>
<rect x="704" y="147" width="3" height="1" rx="0.5" fill="#9105FF"/>
</g>
<rect x="163" y="146" width="3" height="1" rx="0.5" fill="#9105FF"/>
<rect x="167" y="146" width="3" height="1" rx="0.5" fill="#9105FF"/>
<rect x="171" y="146" width="3" height="1" rx="0.5" fill="#9105FF"/>
<rect x="175" y="146" width="3" height="1" rx="0.5" fill="#9105FF"/>
<rect x="179" y="146" width="3" height="1" rx="0.5" fill="#9105FF"/>
<rect x="183" y="146" width="3" height="1" rx="0.5" fill="#9105FF"/>
<rect x="187" y="146" width="3" height="1" rx="0.5" fill="#9105FF"/>
<rect x="191" y="146" width="3" height="1" rx="0.5" fill="#9105FF"/>
<rect x="195" y="146" width="3" height="1" rx="0.5" fill="#9105FF"/>
<rect x="199" y="146" width="3" height="1" rx="0.5" fill="#9105FF"/>
<rect x="203" y="146" width="3" height="1" rx="0.5" fill="#9105FF"/>
<rect x="207" y="146" width="3" height="1" rx="0.5" fill="#9105FF"/>
<rect x="270" y="146" width="3" height="1" rx="0.5" fill="#9105FF"/>
<rect x="274" y="146" width="3" height="1" rx="0.5" fill="#9105FF"/>
<rect x="278" y="146" width="3" height="1" rx="0.5" fill="#9105FF"/>
<rect x="282" y="146" width="3" height="1" rx="0.5" fill="#9105FF"/>
<rect x="286" y="146" width="3" height="1" rx="0.5" fill="#9105FF"/>
<rect x="290" y="146" width="3" height="1" rx="0.5" fill="#9105FF"/>
<rect x="294" y="146" width="3" height="1" rx="0.5" fill="#9105FF"/>
<rect x="298" y="146" width="3" height="1" rx="0.5" fill="#9105FF"/>
<rect x="302" y="146" width="3" height="1" rx="0.5" fill="#9105FF"/>
<rect x="306" y="146" width="3" height="1" rx="0.5" fill="#9105FF"/>
<rect x="310" y="146" width="3" height="1" rx="0.5" fill="#9105FF"/>
<rect x="314" y="146" width="3" height="1" rx="0.5" fill="#9105FF"/>
<rect x="270" y="86" width="3" height="1" rx="0.5" fill="#9105FF"/>
<rect x="274" y="86" width="3" height="1" rx="0.5" fill="#9105FF"/>
<rect x="278" y="86" width="3" height="1" rx="0.5" fill="#9105FF"/>
<rect x="282" y="86" width="3" height="1" rx="0.5" fill="#9105FF"/>
<rect x="286" y="86" width="3" height="1" rx="0.5" fill="#9105FF"/>
<rect x="290" y="86" width="3" height="1" rx="0.5" fill="#9105FF"/>
<rect x="294" y="86" width="3" height="1" rx="0.5" fill="#9105FF"/>
<rect x="298" y="86" width="3" height="1" rx="0.5" fill="#9105FF"/>
<rect x="302" y="86" width="3" height="1" rx="0.5" fill="#9105FF"/>
<rect x="306" y="86" width="3" height="1" rx="0.5" fill="#9105FF"/>
<rect x="310" y="86" width="3" height="1" rx="0.5" fill="#9105FF"/>
<rect x="314" y="86" width="3" height="1" rx="0.5" fill="#9105FF"/>
<rect x="364" y="155" width="132" height="38" rx="10" fill="url(#paint46_linear_536_223)" stroke="white" stroke-dasharray="2 2"/>
<path d="M403.404 180V168.23H404.245L411.844 178.638V168.23H412.618V180H411.945L404.177 169.373V180H403.404ZM418.719 180.168C417.957 180.168 417.262 179.977 416.634 179.596C416.006 179.215 415.508 178.699 415.138 178.049C414.779 177.399 414.6 176.671 414.6 175.864C414.6 175.056 414.773 174.328 415.121 173.678C415.48 173.028 415.967 172.512 416.584 172.131C417.2 171.75 417.89 171.559 418.652 171.559C419.369 171.559 420.008 171.75 420.569 172.131C421.129 172.512 421.572 173.022 421.897 173.661C422.233 174.289 422.401 174.989 422.401 175.763V176.065H415.356C415.39 176.704 415.558 177.282 415.861 177.797C416.163 178.302 416.561 178.705 417.054 179.008C417.559 179.31 418.114 179.462 418.719 179.462C419.19 179.462 419.655 179.389 420.115 179.243C420.574 179.086 420.966 178.879 421.291 178.621L421.729 179.21C421.28 179.535 420.804 179.776 420.299 179.933C419.795 180.089 419.268 180.168 418.719 180.168ZM415.39 175.359H421.611C421.555 174.787 421.392 174.272 421.123 173.812C420.854 173.341 420.507 172.966 420.081 172.686C419.655 172.406 419.173 172.265 418.635 172.265C418.063 172.265 417.542 172.4 417.071 172.669C416.612 172.938 416.231 173.308 415.928 173.779C415.636 174.238 415.457 174.765 415.39 175.359ZM427.173 180.168C426.557 180.168 426.008 180.039 425.526 179.781C425.055 179.512 424.685 179.142 424.416 178.671C424.147 178.189 424.012 177.635 424.012 177.007V171.727H424.752V176.805C424.752 177.623 424.982 178.274 425.442 178.756C425.901 179.238 426.535 179.479 427.342 179.479C427.902 179.479 428.406 179.344 428.855 179.075C429.303 178.806 429.656 178.43 429.914 177.948V171.727H430.654V180H429.914V178.856C429.264 179.731 428.35 180.168 427.173 180.168ZM433.954 180V168.23L434.694 168.045V180H433.954ZM441.213 180.168C440.45 180.168 439.755 179.977 439.128 179.596C438.5 179.215 438.001 178.699 437.631 178.049C437.273 177.399 437.093 176.671 437.093 175.864C437.093 175.056 437.267 174.328 437.615 173.678C437.973 173.028 438.461 172.512 439.077 172.131C439.694 171.75 440.383 171.559 441.145 171.559C441.863 171.559 442.502 171.75 443.062 172.131C443.623 172.512 444.065 173.022 444.39 173.661C444.727 174.289 444.895 174.989 444.895 175.763V176.065H437.85C437.884 176.704 438.052 177.282 438.354 177.797C438.657 178.302 439.055 178.705 439.548 179.008C440.053 179.31 440.607 179.462 441.213 179.462C441.683 179.462 442.149 179.389 442.608 179.243C443.068 179.086 443.46 178.879 443.785 178.621L444.222 179.21C443.774 179.535 443.298 179.776 442.793 179.933C442.289 180.089 441.762 180.168 441.213 180.168ZM437.884 175.359H444.105C444.049 174.787 443.886 174.272 443.617 173.812C443.348 173.341 443.001 172.966 442.575 172.686C442.149 172.406 441.667 172.265 441.129 172.265C440.557 172.265 440.036 172.4 439.565 172.669C439.105 172.938 438.724 173.308 438.422 173.779C438.13 174.238 437.951 174.765 437.884 175.359ZM450.272 180.168C449.51 180.168 448.815 179.977 448.188 179.596C447.56 179.215 447.061 178.699 446.691 178.049C446.332 177.399 446.153 176.671 446.153 175.864C446.153 175.056 446.332 174.328 446.691 173.678C447.061 173.028 447.56 172.512 448.188 172.131C448.815 171.75 449.51 171.559 450.272 171.559C450.799 171.559 451.309 171.666 451.802 171.879C452.296 172.08 452.733 172.355 453.114 172.703V168.23L453.854 168.045V180H453.114V179.008C452.363 179.781 451.416 180.168 450.272 180.168ZM450.272 179.462C450.889 179.462 451.444 179.338 451.937 179.092C452.441 178.834 452.834 178.498 453.114 178.083V173.644C452.823 173.252 452.425 172.927 451.92 172.669C451.416 172.4 450.867 172.265 450.272 172.265C449.645 172.265 449.073 172.428 448.557 172.753C448.053 173.067 447.649 173.498 447.347 174.048C447.055 174.586 446.91 175.191 446.91 175.864C446.91 176.536 447.055 177.147 447.347 177.696C447.649 178.234 448.053 178.666 448.557 178.991C449.073 179.305 449.645 179.462 450.272 179.462ZM459.962 183.598C459.413 183.598 458.869 183.519 458.331 183.363C457.793 183.206 457.3 182.987 456.851 182.707L457.272 182.101C457.765 182.382 458.213 182.583 458.617 182.707C459.032 182.83 459.463 182.892 459.912 182.892C460.775 182.892 461.43 182.684 461.879 182.27C462.327 181.855 462.551 181.238 462.551 180.42V179.008C461.8 179.781 460.853 180.168 459.71 180.168C458.948 180.168 458.253 179.977 457.625 179.596C456.997 179.215 456.498 178.699 456.128 178.049C455.77 177.399 455.59 176.671 455.59 175.864C455.59 175.056 455.77 174.328 456.128 173.678C456.498 173.028 456.997 172.512 457.625 172.131C458.253 171.75 458.948 171.559 459.71 171.559C460.237 171.559 460.747 171.666 461.24 171.879C461.733 172.08 462.17 172.355 462.551 172.703V171.727H463.291V180.386C463.291 181.44 463 182.236 462.417 182.774C461.845 183.323 461.027 183.598 459.962 183.598ZM459.71 179.462C460.326 179.462 460.881 179.338 461.374 179.092C461.879 178.834 462.271 178.498 462.551 178.083V173.644C462.26 173.252 461.862 172.927 461.358 172.669C460.853 172.4 460.304 172.265 459.71 172.265C459.082 172.265 458.51 172.428 457.995 172.753C457.49 173.067 457.087 173.498 456.784 174.048C456.493 174.586 456.347 175.191 456.347 175.864C456.347 176.536 456.493 177.147 456.784 177.696C457.087 178.234 457.49 178.666 457.995 178.991C458.51 179.305 459.082 179.462 459.71 179.462ZM469.147 180.168C468.385 180.168 467.69 179.977 467.062 179.596C466.435 179.215 465.936 178.699 465.566 178.049C465.207 177.399 465.028 176.671 465.028 175.864C465.028 175.056 465.202 174.328 465.549 173.678C465.908 173.028 466.395 172.512 467.012 172.131C467.628 171.75 468.318 171.559 469.08 171.559C469.797 171.559 470.436 171.75 470.997 172.131C471.557 172.512 472 173.022 472.325 173.661C472.661 174.289 472.829 174.989 472.829 175.763V176.065H465.784C465.818 176.704 465.986 177.282 466.289 177.797C466.592 178.302 466.989 178.705 467.483 179.008C467.987 179.31 468.542 179.462 469.147 179.462C469.618 179.462 470.083 179.389 470.543 179.243C471.002 179.086 471.395 178.879 471.72 178.621L472.157 179.21C471.709 179.535 471.232 179.776 470.728 179.933C470.223 180.089 469.696 180.168 469.147 180.168ZM465.818 175.359H472.039C471.983 174.787 471.821 174.272 471.552 173.812C471.283 173.341 470.935 172.966 470.509 172.686C470.083 172.406 469.601 172.265 469.063 172.265C468.491 172.265 467.97 172.4 467.499 172.669C467.04 172.938 466.659 173.308 466.356 173.779C466.065 174.238 465.885 174.765 465.818 175.359Z" fill="white"/>
<path d="M398.292 166.981C397.127 172.403 396.903 177.654 396.903 177.654L395.898 174.478L394.417 173.408C396.558 170.394 398.292 166.981 398.292 166.981Z" fill="white"/>
<path d="M389.859 183.897C389.859 183.897 391.338 178.454 391.364 172.7L394.926 175.275C392.179 179.09 389.859 183.897 389.859 183.897Z" fill="white"/>
<path d="M53.8763 12.326H51.4857C51.4175 11.9339 51.2918 11.5866 51.1086 11.2841C50.9253 10.9773 50.6974 10.7173 50.4246 10.5043C50.1519 10.2912 49.8408 10.1314 49.4914 10.0249C49.1462 9.91406 48.7733 9.85866 48.3728 9.85866C47.6611 9.85866 47.0305 10.0376 46.4807 10.3956C45.931 10.7493 45.5006 11.2692 45.1895 11.9553C44.8785 12.6371 44.7229 13.4702 44.7229 14.4545C44.7229 15.456 44.8785 16.2997 45.1895 16.9858C45.5049 17.6676 45.9353 18.1832 46.4807 18.5327C47.0305 18.8778 47.659 19.0504 48.3664 19.0504C48.7584 19.0504 49.1249 18.9993 49.4658 18.897C49.811 18.7905 50.1199 18.6349 50.3927 18.4304C50.6697 18.2259 50.9019 17.9744 51.0894 17.6761C51.2812 17.3778 51.4133 17.0369 51.4857 16.6534L53.8763 16.6662C53.7868 17.2884 53.593 17.8722 53.2947 18.4176C53.0006 18.9631 52.615 19.4446 52.1377 19.8622C51.6604 20.2756 51.1022 20.5994 50.463 20.8338C49.8238 21.0639 49.1143 21.179 48.3344 21.179C47.1839 21.179 46.1569 20.9126 45.2535 20.38C44.3501 19.8473 43.6384 19.0781 43.1185 18.0724C42.5986 17.0668 42.3387 15.8608 42.3387 14.4545C42.3387 13.044 42.6008 11.8381 43.1249 10.8366C43.6491 9.83097 44.3628 9.06179 45.2662 8.52912C46.1697 7.99645 47.1924 7.73011 48.3344 7.73011C49.0631 7.73011 49.7407 7.83239 50.3671 8.03693C50.9935 8.24148 51.5518 8.5419 52.0418 8.93821C52.5319 9.33026 52.9346 9.81179 53.2499 10.3828C53.5695 10.9496 53.7783 11.5973 53.8763 12.326ZM58.0597 7.90909V21H55.7458V7.90909H58.0597ZM60.2391 21V11.1818H62.553V21H60.2391ZM61.4025 9.78835C61.036 9.78835 60.7207 9.6669 60.4564 9.42401C60.1922 9.17685 60.0601 8.88068 60.0601 8.53551C60.0601 8.18608 60.1922 7.88991 60.4564 7.64702C60.7207 7.39986 61.036 7.27628 61.4025 7.27628C61.7732 7.27628 62.0885 7.39986 62.3485 7.64702C62.6127 7.88991 62.7448 8.18608 62.7448 8.53551C62.7448 8.88068 62.6127 9.17685 62.3485 9.42401C62.0885 9.6669 61.7732 9.78835 61.4025 9.78835ZM69.0791 21.1918C68.0947 21.1918 67.2445 20.9872 66.5286 20.5781C65.817 20.1648 65.2694 19.581 64.8859 18.8267C64.5024 18.0682 64.3106 17.1754 64.3106 16.1484C64.3106 15.1385 64.5024 14.2521 64.8859 13.4893C65.2737 12.7223 65.8149 12.1257 66.5095 11.6996C67.2041 11.2692 68.0201 11.054 68.9576 11.054C69.5627 11.054 70.1338 11.152 70.6707 11.348C71.2119 11.5398 71.6892 11.8381 72.1025 12.2429C72.5201 12.6477 72.8482 13.1634 73.0869 13.7898C73.3255 14.4119 73.4448 15.1534 73.4448 16.0142V16.7237H65.3972V15.1641H71.2268C71.2225 14.7209 71.1267 14.3267 70.9392 13.9815C70.7517 13.6321 70.4896 13.3572 70.1529 13.157C69.8205 12.9567 69.4328 12.8565 68.9896 12.8565C68.5166 12.8565 68.1011 12.9716 67.7431 13.2017C67.3852 13.4276 67.1061 13.7259 66.9058 14.0966C66.7097 14.4631 66.6096 14.8658 66.6053 15.3047V16.6662C66.6053 17.2372 66.7097 17.7273 66.9186 18.1364C67.1274 18.5412 67.4193 18.8523 67.7943 19.0696C68.1693 19.2827 68.6082 19.3892 69.111 19.3892C69.4477 19.3892 69.7524 19.3423 70.0251 19.2486C70.2978 19.1506 70.5343 19.0078 70.7346 18.8203C70.9349 18.6328 71.0862 18.4006 71.1884 18.1236L73.349 18.3665C73.2126 18.9375 72.9526 19.4361 72.5691 19.8622C72.1899 20.2841 71.7041 20.6122 71.1117 20.8466C70.5194 21.0767 69.8418 21.1918 69.0791 21.1918ZM77.5163 15.2472V21H75.2024V11.1818H77.414V12.8501H77.5291C77.755 12.3004 78.115 11.8636 78.6094 11.5398C79.1079 11.2159 79.7237 11.054 80.4567 11.054C81.1342 11.054 81.7244 11.1989 82.2273 11.4886C82.7344 11.7784 83.1264 12.1982 83.4034 12.7479C83.6846 13.2976 83.8231 13.9645 83.8189 14.7486V21H81.505V15.1065C81.505 14.4503 81.3345 13.9368 80.9936 13.5661C80.6569 13.1953 80.1903 13.0099 79.5937 13.0099C79.1889 13.0099 78.8288 13.0994 78.5135 13.2784C78.2024 13.4531 77.9574 13.7067 77.7784 14.0391C77.6037 14.3714 77.5163 14.7741 77.5163 15.2472ZM90.8738 11.1818V12.9716H85.2297V11.1818H90.8738ZM86.6231 8.82955H88.9371V18.0469C88.9371 18.358 88.9839 18.5966 89.0777 18.7628C89.1757 18.9247 89.3035 19.0355 89.4612 19.0952C89.6189 19.1548 89.7936 19.1847 89.9854 19.1847C90.1302 19.1847 90.2623 19.174 90.3817 19.1527C90.5052 19.1314 90.599 19.1122 90.6629 19.0952L91.0528 20.9041C90.9292 20.9467 90.7524 20.9936 90.5223 21.0447C90.2964 21.0959 90.0194 21.1257 89.6913 21.1342C89.1118 21.1513 88.5898 21.0639 88.1253 20.8722C87.6608 20.6761 87.2922 20.3736 87.0194 19.9645C86.751 19.5554 86.6189 19.044 86.6231 18.4304V8.82955Z" fill="white"/>
<path d="M398.586 11.5078C398.527 10.9496 398.275 10.5149 397.832 10.2038C397.393 9.89276 396.822 9.73722 396.119 9.73722C395.625 9.73722 395.201 9.81179 394.847 9.96094C394.493 10.1101 394.223 10.3125 394.035 10.5682C393.848 10.8239 393.752 11.1158 393.747 11.4439C393.747 11.7166 393.809 11.9531 393.933 12.1534C394.061 12.3537 394.233 12.5241 394.451 12.6648C394.668 12.8011 394.909 12.9162 395.173 13.0099C395.437 13.1037 395.703 13.1825 395.972 13.2464L397.199 13.5533C397.693 13.6683 398.169 13.8239 398.625 14.0199C399.085 14.2159 399.496 14.4631 399.858 14.7614C400.225 15.0597 400.514 15.4197 400.728 15.8416C400.941 16.2635 401.047 16.7578 401.047 17.3246C401.047 18.0916 400.851 18.767 400.459 19.3509C400.067 19.9304 399.5 20.3842 398.759 20.7124C398.022 21.0362 397.129 21.1982 396.081 21.1982C395.062 21.1982 394.178 21.0405 393.428 20.7251C392.682 20.4098 392.098 19.9496 391.676 19.3445C391.259 18.7393 391.033 18.0021 390.999 17.1328H393.332C393.366 17.5888 393.507 17.968 393.754 18.2706C394.001 18.5732 394.323 18.799 394.719 18.9482C395.12 19.0973 395.567 19.1719 396.061 19.1719C396.577 19.1719 397.029 19.0952 397.416 18.9418C397.809 18.7841 398.115 18.5668 398.337 18.2898C398.559 18.0085 398.671 17.6804 398.676 17.3054C398.671 16.9645 398.571 16.6832 398.375 16.4616C398.179 16.2358 397.904 16.0483 397.551 15.8991C397.201 15.7457 396.792 15.6094 396.323 15.4901L394.834 15.1065C393.756 14.8295 392.904 14.4098 392.277 13.8473C391.655 13.2805 391.344 12.5284 391.344 11.5909C391.344 10.8196 391.553 10.1442 391.97 9.56463C392.392 8.98509 392.965 8.53551 393.69 8.21591C394.414 7.89204 395.235 7.73011 396.151 7.73011C397.08 7.73011 397.894 7.89204 398.593 8.21591C399.296 8.53551 399.848 8.98082 400.248 9.55185C400.649 10.1186 400.855 10.7706 400.868 11.5078H398.586ZM407.206 21.1918C406.221 21.1918 405.371 20.9872 404.655 20.5781C403.944 20.1648 403.396 19.581 403.012 18.8267C402.629 18.0682 402.437 17.1754 402.437 16.1484C402.437 15.1385 402.629 14.2521 403.012 13.4893C403.4 12.7223 403.941 12.1257 404.636 11.6996C405.331 11.2692 406.147 11.054 407.084 11.054C407.689 11.054 408.26 11.152 408.797 11.348C409.338 11.5398 409.816 11.8381 410.229 12.2429C410.647 12.6477 410.975 13.1634 411.213 13.7898C411.452 14.4119 411.571 15.1534 411.571 16.0142V16.7237H403.524V15.1641H409.353C409.349 14.7209 409.253 14.3267 409.066 13.9815C408.878 13.6321 408.616 13.3572 408.279 13.157C407.947 12.9567 407.559 12.8565 407.116 12.8565C406.643 12.8565 406.228 12.9716 405.87 13.2017C405.512 13.4276 405.233 13.7259 405.032 14.0966C404.836 14.4631 404.736 14.8658 404.732 15.3047V16.6662C404.732 17.2372 404.836 17.7273 405.045 18.1364C405.254 18.5412 405.546 18.8523 405.921 19.0696C406.296 19.2827 406.735 19.3892 407.238 19.3892C407.574 19.3892 407.879 19.3423 408.152 19.2486C408.424 19.1506 408.661 19.0078 408.861 18.8203C409.061 18.6328 409.213 18.4006 409.315 18.1236L411.476 18.3665C411.339 18.9375 411.079 19.4361 410.696 19.8622C410.316 20.2841 409.831 20.6122 409.238 20.8466C408.646 21.0767 407.968 21.1918 407.206 21.1918ZM413.329 21V11.1818H415.573V12.8182H415.675C415.854 12.2514 416.161 11.8146 416.595 11.5078C417.034 11.1967 417.535 11.0412 418.097 11.0412C418.225 11.0412 418.368 11.0476 418.526 11.0604C418.688 11.0689 418.822 11.0838 418.928 11.1051V13.2337C418.83 13.1996 418.675 13.1697 418.462 13.1442C418.253 13.1143 418.051 13.0994 417.855 13.0994C417.433 13.0994 417.053 13.1911 416.717 13.3743C416.384 13.5533 416.122 13.8026 415.931 14.1222C415.739 14.4418 415.643 14.8104 415.643 15.228V21H413.329ZM429.334 11.1818L425.838 21H423.281L419.785 11.1818H422.252L424.508 18.4751H424.611L426.873 11.1818H429.334ZM434.748 21.1918C433.764 21.1918 432.914 20.9872 432.198 20.5781C431.486 20.1648 430.939 19.581 430.555 18.8267C430.172 18.0682 429.98 17.1754 429.98 16.1484C429.98 15.1385 430.172 14.2521 430.555 13.4893C430.943 12.7223 431.484 12.1257 432.179 11.6996C432.873 11.2692 433.689 11.054 434.627 11.054C435.232 11.054 435.803 11.152 436.34 11.348C436.881 11.5398 437.358 11.8381 437.772 12.2429C438.189 12.6477 438.517 13.1634 438.756 13.7898C438.995 14.4119 439.114 15.1534 439.114 16.0142V16.7237H431.066V15.1641H436.896C436.892 14.7209 436.796 14.3267 436.608 13.9815C436.421 13.6321 436.159 13.3572 435.822 13.157C435.49 12.9567 435.102 12.8565 434.659 12.8565C434.186 12.8565 433.77 12.9716 433.412 13.2017C433.054 13.4276 432.775 13.7259 432.575 14.0966C432.379 14.4631 432.279 14.8658 432.274 15.3047V16.6662C432.274 17.2372 432.379 17.7273 432.588 18.1364C432.797 18.5412 433.088 18.8523 433.463 19.0696C433.838 19.2827 434.277 19.3892 434.78 19.3892C435.117 19.3892 435.422 19.3423 435.694 19.2486C435.967 19.1506 436.203 19.0078 436.404 18.8203C436.604 18.6328 436.755 18.4006 436.858 18.1236L439.018 18.3665C438.882 18.9375 438.622 19.4361 438.238 19.8622C437.859 20.2841 437.373 20.6122 436.781 20.8466C436.189 21.0767 435.511 21.1918 434.748 21.1918ZM440.872 21V11.1818H443.115V12.8182H443.217C443.396 12.2514 443.703 11.8146 444.138 11.5078C444.577 11.1967 445.078 11.0412 445.64 11.0412C445.768 11.0412 445.911 11.0476 446.068 11.0604C446.23 11.0689 446.364 11.0838 446.471 11.1051V13.2337C446.373 13.1996 446.217 13.1697 446.004 13.1442C445.796 13.1143 445.593 13.0994 445.397 13.0994C444.975 13.0994 444.596 13.1911 444.259 13.3743C443.927 13.5533 443.665 13.8026 443.473 14.1222C443.281 14.4418 443.185 14.8104 443.185 15.228V21H440.872Z" fill="white"/>
<path d="M740.04 21H735.603V7.90909H740.129C741.429 7.90909 742.545 8.17116 743.478 8.69531C744.416 9.2152 745.136 9.96307 745.639 10.9389C746.142 11.9148 746.393 13.0824 746.393 14.4418C746.393 15.8054 746.14 16.9773 745.633 17.9574C745.13 18.9375 744.403 19.6896 743.453 20.2138C742.507 20.7379 741.369 21 740.04 21ZM737.975 18.9482H739.925C740.836 18.9482 741.597 18.782 742.206 18.4496C742.816 18.1129 743.274 17.6122 743.581 16.9474C743.888 16.2784 744.041 15.4432 744.041 14.4418C744.041 13.4403 743.888 12.6094 743.581 11.9489C743.274 11.2841 742.82 10.7876 742.219 10.4595C741.623 10.1271 740.881 9.96094 739.995 9.96094H737.975V18.9482ZM751.169 21.1982C750.547 21.1982 749.987 21.0874 749.488 20.8658C748.994 20.6399 748.602 20.3075 748.312 19.8686C748.027 19.4297 747.884 18.8885 747.884 18.245C747.884 17.6911 747.986 17.233 748.191 16.8707C748.395 16.5085 748.674 16.2188 749.028 16.0014C749.382 15.7841 749.78 15.62 750.223 15.5092C750.671 15.3942 751.133 15.3111 751.611 15.2599C752.186 15.2003 752.652 15.147 753.01 15.1001C753.368 15.049 753.628 14.9723 753.79 14.87C753.956 14.7635 754.04 14.5994 754.04 14.3778V14.3395C754.04 13.858 753.897 13.4851 753.611 13.2209C753.326 12.9567 752.915 12.8246 752.378 12.8246C751.811 12.8246 751.361 12.9482 751.029 13.1953C750.701 13.4425 750.479 13.7344 750.364 14.071L748.204 13.7642C748.374 13.1676 748.655 12.669 749.047 12.2685C749.439 11.8636 749.919 11.5611 750.486 11.3608C751.052 11.1562 751.679 11.054 752.365 11.054C752.838 11.054 753.309 11.1094 753.777 11.2202C754.246 11.331 754.674 11.5142 755.062 11.7699C755.45 12.0213 755.761 12.3643 755.995 12.799C756.234 13.2337 756.353 13.777 756.353 14.429V21H754.129V19.6513H754.052C753.912 19.924 753.714 20.1797 753.458 20.4183C753.206 20.6527 752.889 20.8423 752.505 20.9872C752.126 21.1278 751.681 21.1982 751.169 21.1982ZM751.77 19.4979C752.235 19.4979 752.638 19.4062 752.978 19.223C753.319 19.0355 753.581 18.7884 753.765 18.4815C753.952 18.1747 754.046 17.8402 754.046 17.478V16.321C753.973 16.3807 753.85 16.4361 753.675 16.4872C753.505 16.5384 753.313 16.5831 753.1 16.6214C752.887 16.6598 752.676 16.6939 752.467 16.7237C752.258 16.7536 752.077 16.7791 751.924 16.8004C751.579 16.8473 751.27 16.924 750.997 17.0305C750.724 17.1371 750.509 17.2862 750.351 17.478C750.194 17.6655 750.115 17.9084 750.115 18.2067C750.115 18.6328 750.27 18.9545 750.581 19.1719C750.892 19.3892 751.289 19.4979 751.77 19.4979ZM763.383 11.1818V12.9716H757.739V11.1818H763.383ZM759.132 8.82955H761.446V18.0469C761.446 18.358 761.493 18.5966 761.587 18.7628C761.685 18.9247 761.813 19.0355 761.97 19.0952C762.128 19.1548 762.303 19.1847 762.494 19.1847C762.639 19.1847 762.771 19.174 762.891 19.1527C763.014 19.1314 763.108 19.1122 763.172 19.0952L763.562 20.9041C763.438 20.9467 763.261 20.9936 763.031 21.0447C762.805 21.0959 762.528 21.1257 762.2 21.1342C761.621 21.1513 761.099 21.0639 760.634 20.8722C760.17 20.6761 759.801 20.3736 759.528 19.9645C759.26 19.5554 759.128 19.044 759.132 18.4304V8.82955ZM767.943 21.1982C767.321 21.1982 766.761 21.0874 766.262 20.8658C765.768 20.6399 765.376 20.3075 765.086 19.8686C764.801 19.4297 764.658 18.8885 764.658 18.245C764.658 17.6911 764.76 17.233 764.965 16.8707C765.169 16.5085 765.448 16.2188 765.802 16.0014C766.156 15.7841 766.554 15.62 766.997 15.5092C767.445 15.3942 767.907 15.3111 768.384 15.2599C768.96 15.2003 769.426 15.147 769.784 15.1001C770.142 15.049 770.402 14.9723 770.564 14.87C770.73 14.7635 770.813 14.5994 770.813 14.3778V14.3395C770.813 13.858 770.671 13.4851 770.385 13.2209C770.1 12.9567 769.688 12.8246 769.151 12.8246C768.585 12.8246 768.135 12.9482 767.803 13.1953C767.475 13.4425 767.253 13.7344 767.138 14.071L764.977 13.7642C765.148 13.1676 765.429 12.669 765.821 12.2685C766.213 11.8636 766.693 11.5611 767.259 11.3608C767.826 11.1562 768.453 11.054 769.139 11.054C769.612 11.054 770.083 11.1094 770.551 11.2202C771.02 11.331 771.448 11.5142 771.836 11.7699C772.224 12.0213 772.535 12.3643 772.769 12.799C773.008 13.2337 773.127 13.777 773.127 14.429V21H770.903V19.6513H770.826C770.685 19.924 770.487 20.1797 770.232 20.4183C769.98 20.6527 769.663 20.8423 769.279 20.9872C768.9 21.1278 768.455 21.1982 767.943 21.1982ZM768.544 19.4979C769.009 19.4979 769.411 19.4062 769.752 19.223C770.093 19.0355 770.355 18.7884 770.538 18.4815C770.726 18.1747 770.82 17.8402 770.82 17.478V16.321C770.747 16.3807 770.624 16.4361 770.449 16.4872C770.279 16.5384 770.087 16.5831 769.874 16.6214C769.661 16.6598 769.45 16.6939 769.241 16.7237C769.032 16.7536 768.851 16.7791 768.698 16.8004C768.352 16.8473 768.043 16.924 767.771 17.0305C767.498 17.1371 767.283 17.2862 767.125 17.478C766.967 17.6655 766.889 17.9084 766.889 18.2067C766.889 18.6328 767.044 18.9545 767.355 19.1719C767.666 19.3892 768.063 19.4979 768.544 19.4979ZM775.356 21V7.90909H777.67V12.8054H777.766C777.885 12.5668 778.054 12.3132 778.271 12.0447C778.488 11.772 778.782 11.5398 779.153 11.348C779.524 11.152 779.997 11.054 780.572 11.054C781.331 11.054 782.015 11.2479 782.624 11.6357C783.238 12.0192 783.723 12.5881 784.081 13.3423C784.444 14.0923 784.625 15.0128 784.625 16.1037C784.625 17.1818 784.448 18.098 784.094 18.8523C783.74 19.6065 783.259 20.1818 782.65 20.5781C782.04 20.9744 781.35 21.1726 780.579 21.1726C780.016 21.1726 779.549 21.0788 779.179 20.8913C778.808 20.7038 778.51 20.478 778.284 20.2138C778.062 19.9453 777.89 19.6918 777.766 19.4531H777.632V21H775.356ZM777.625 16.0909C777.625 16.7259 777.715 17.282 777.894 17.7592C778.077 18.2365 778.339 18.6094 778.68 18.8778C779.025 19.142 779.443 19.2741 779.933 19.2741C780.444 19.2741 780.873 19.1378 781.218 18.8651C781.563 18.5881 781.823 18.2109 781.998 17.7337C782.177 17.2521 782.266 16.7045 782.266 16.0909C782.266 15.4815 782.179 14.9403 782.004 14.4673C781.829 13.9943 781.569 13.6236 781.224 13.3551C780.879 13.0866 780.449 12.9524 779.933 12.9524C779.439 12.9524 779.019 13.0824 778.674 13.3423C778.329 13.6023 778.066 13.9666 777.887 14.4354C777.713 14.9041 777.625 15.456 777.625 16.0909ZM789.217 21.1982C788.595 21.1982 788.035 21.0874 787.536 20.8658C787.042 20.6399 786.65 20.3075 786.36 19.8686C786.074 19.4297 785.932 18.8885 785.932 18.245C785.932 17.6911 786.034 17.233 786.238 16.8707C786.443 16.5085 786.722 16.2188 787.076 16.0014C787.429 15.7841 787.828 15.62 788.271 15.5092C788.719 15.3942 789.181 15.3111 789.658 15.2599C790.233 15.2003 790.7 15.147 791.058 15.1001C791.416 15.049 791.676 14.9723 791.838 14.87C792.004 14.7635 792.087 14.5994 792.087 14.3778V14.3395C792.087 13.858 791.944 13.4851 791.659 13.2209C791.373 12.9567 790.962 12.8246 790.425 12.8246C789.858 12.8246 789.409 12.9482 789.077 13.1953C788.748 13.4425 788.527 13.7344 788.412 14.071L786.251 13.7642C786.422 13.1676 786.703 12.669 787.095 12.2685C787.487 11.8636 787.966 11.5611 788.533 11.3608C789.1 11.1562 789.726 11.054 790.412 11.054C790.885 11.054 791.356 11.1094 791.825 11.2202C792.294 11.331 792.722 11.5142 793.11 11.7699C793.498 12.0213 793.809 12.3643 794.043 12.799C794.282 13.2337 794.401 13.777 794.401 14.429V21H792.177V19.6513H792.1C791.959 19.924 791.761 20.1797 791.505 20.4183C791.254 20.6527 790.937 20.8423 790.553 20.9872C790.174 21.1278 789.728 21.1982 789.217 21.1982ZM789.818 19.4979C790.282 19.4979 790.685 19.4062 791.026 19.223C791.367 19.0355 791.629 18.7884 791.812 18.4815C792 18.1747 792.094 17.8402 792.094 17.478V16.321C792.021 16.3807 791.898 16.4361 791.723 16.4872C791.552 16.5384 791.361 16.5831 791.148 16.6214C790.934 16.6598 790.724 16.6939 790.515 16.7237C790.306 16.7536 790.125 16.7791 789.971 16.8004C789.626 16.8473 789.317 16.924 789.045 17.0305C788.772 17.1371 788.557 17.2862 788.399 17.478C788.241 17.6655 788.162 17.9084 788.162 18.2067C788.162 18.6328 788.318 18.9545 788.629 19.1719C788.94 19.3892 789.336 19.4979 789.818 19.4979ZM804.288 13.777L802.178 14.0071C802.119 13.794 802.014 13.5938 801.865 13.4062C801.72 13.2188 801.524 13.0675 801.277 12.9524C801.03 12.8374 800.727 12.7798 800.369 12.7798C799.888 12.7798 799.483 12.8842 799.155 13.093C798.831 13.3018 798.671 13.5724 798.676 13.9048C798.671 14.1903 798.776 14.4226 798.989 14.6016C799.206 14.7805 799.564 14.9276 800.063 15.0426L801.737 15.4006C802.666 15.6009 803.357 15.9183 803.808 16.353C804.264 16.7876 804.494 17.3565 804.499 18.0597C804.494 18.6776 804.313 19.223 803.955 19.696C803.602 20.1648 803.109 20.5312 802.479 20.7955C801.848 21.0597 801.124 21.1918 800.305 21.1918C799.104 21.1918 798.136 20.9403 797.403 20.4375C796.671 19.9304 796.234 19.2251 796.093 18.3217L798.35 18.1044C798.452 18.5476 798.669 18.8821 799.002 19.108C799.334 19.3338 799.766 19.4467 800.299 19.4467C800.849 19.4467 801.29 19.3338 801.622 19.108C801.959 18.8821 802.127 18.603 802.127 18.2706C802.127 17.9893 802.019 17.7571 801.801 17.5739C801.588 17.3906 801.256 17.25 800.804 17.152L799.129 16.8004C798.188 16.6044 797.491 16.2741 797.039 15.8097C796.587 15.3409 796.364 14.7486 796.368 14.0327C796.364 13.4276 796.528 12.9034 796.86 12.4602C797.197 12.0128 797.663 11.6676 798.26 11.4247C798.861 11.1776 799.553 11.054 800.337 11.054C801.488 11.054 802.394 11.299 803.054 11.7891C803.719 12.2791 804.13 12.9418 804.288 13.777ZM810.553 21.1918C809.569 21.1918 808.719 20.9872 808.003 20.5781C807.291 20.1648 806.744 19.581 806.36 18.8267C805.977 18.0682 805.785 17.1754 805.785 16.1484C805.785 15.1385 805.977 14.2521 806.36 13.4893C806.748 12.7223 807.289 12.1257 807.984 11.6996C808.678 11.2692 809.494 11.054 810.432 11.054C811.037 11.054 811.608 11.152 812.145 11.348C812.686 11.5398 813.163 11.8381 813.577 12.2429C813.994 12.6477 814.322 13.1634 814.561 13.7898C814.8 14.4119 814.919 15.1534 814.919 16.0142V16.7237H806.871V15.1641H812.701C812.697 14.7209 812.601 14.3267 812.413 13.9815C812.226 13.6321 811.964 13.3572 811.627 13.157C811.295 12.9567 810.907 12.8565 810.464 12.8565C809.991 12.8565 809.575 12.9716 809.217 13.2017C808.859 13.4276 808.58 13.7259 808.38 14.0966C808.184 14.4631 808.084 14.8658 808.08 15.3047V16.6662C808.08 17.2372 808.184 17.7273 808.393 18.1364C808.602 18.5412 808.893 18.8523 809.268 19.0696C809.643 19.2827 810.082 19.3892 810.585 19.3892C810.922 19.3892 811.227 19.3423 811.499 19.2486C811.772 19.1506 812.009 19.0078 812.209 18.8203C812.409 18.6328 812.56 18.4006 812.663 18.1236L814.823 18.3665C814.687 18.9375 814.427 19.4361 814.043 19.8622C813.664 20.2841 813.178 20.6122 812.586 20.8466C811.994 21.0767 811.316 21.1918 810.553 21.1918Z" fill="white"/>
<defs>
<linearGradient id="paint0_linear_536_223" x1="220.18" y1="73.16" x2="255.27" y2="73.16" gradientUnits="userSpaceOnUse">
<stop stop-color="#9104FF"/>
<stop offset="0.46" stop-color="#B410CF"/>
<stop offset="1" stop-color="#ED7A15"/>
</linearGradient>
<linearGradient id="paint1_linear_536_223" x1="221.9" y1="87.01" x2="261.67" y2="87.01" gradientUnits="userSpaceOnUse">
<stop stop-color="#9104FF"/>
<stop offset="0.46" stop-color="#B410CF"/>
<stop offset="1" stop-color="#ED7A15"/>
</linearGradient>
<linearGradient id="paint2_linear_536_223" x1="218.72" y1="83.59" x2="258.54" y2="77.37" gradientUnits="userSpaceOnUse">
<stop stop-color="#B410CF"/>
<stop offset="1" stop-color="#9104FF"/>
</linearGradient>
<linearGradient id="paint3_linear_536_223" x1="244.53" y1="58.9301" x2="255.27" y2="57.2501" gradientUnits="userSpaceOnUse">
<stop stop-color="#B410CF"/>
<stop offset="1" stop-color="#9104FF"/>
</linearGradient>
<linearGradient id="paint4_linear_536_223" x1="nan" y1="nan" x2="nan" y2="nan" gradientUnits="userSpaceOnUse">
<stop stop-color="#B410CF"/>
<stop offset="1" stop-color="#9104FF"/>
</linearGradient>
<linearGradient id="paint5_linear_536_223" x1="222.98" y1="139.91" x2="253.21" y2="145.2" gradientUnits="userSpaceOnUse">
<stop stop-color="#9104FF"/>
<stop offset="0.46" stop-color="#B410CF"/>
<stop offset="1" stop-color="#ED7A15"/>
</linearGradient>
<linearGradient id="paint6_linear_536_223" x1="213.55" y1="152.74" x2="259.28" y2="160.74" gradientUnits="userSpaceOnUse">
<stop stop-color="#9104FF"/>
<stop offset="0.46" stop-color="#B410CF"/>
<stop offset="1" stop-color="#ED7A15"/>
</linearGradient>
<linearGradient id="paint7_linear_536_223" x1="246.29" y1="145.37" x2="251.04" y2="145.11" gradientUnits="userSpaceOnUse">
<stop stop-color="#9104FF"/>
<stop offset="0.46" stop-color="#B410CF"/>
<stop offset="1" stop-color="#ED7A15"/>
</linearGradient>
<linearGradient id="paint8_linear_536_223" x1="245.57" y1="140.97" x2="254.86" y2="138.72" gradientUnits="userSpaceOnUse">
<stop stop-color="#9104FF"/>
<stop offset="0.46" stop-color="#B410CF"/>
<stop offset="1" stop-color="#ED7A15"/>
</linearGradient>
<linearGradient id="paint9_linear_536_223" x1="598.89" y1="135.2" x2="628.14" y2="134.66" gradientUnits="userSpaceOnUse">
<stop stop-color="#9104FF"/>
<stop offset="0.46" stop-color="#B410CF"/>
<stop offset="1" stop-color="#ED7A15"/>
</linearGradient>
<linearGradient id="paint10_linear_536_223" x1="587.01" y1="153.97" x2="644.26" y2="144.02" gradientUnits="userSpaceOnUse">
<stop stop-color="#9104FF"/>
<stop offset="0.46" stop-color="#B410CF"/>
<stop offset="1" stop-color="#ED7A15"/>
</linearGradient>
<linearGradient id="paint11_linear_536_223" x1="631.64" y1="155.25" x2="643.43" y2="153.83" gradientUnits="userSpaceOnUse">
<stop stop-color="#9104FF"/>
<stop offset="1" stop-color="#B410CF"/>
</linearGradient>
<linearGradient id="paint12_linear_536_223" x1="595.62" y1="145.38" x2="634.73" y2="138.58" gradientUnits="userSpaceOnUse">
<stop stop-color="#B410CF"/>
<stop offset="1" stop-color="#9104FF"/>
</linearGradient>
<linearGradient id="paint13_linear_536_223" x1="596.87" y1="82.61" x2="634.52" y2="76.38" gradientUnits="userSpaceOnUse">
<stop stop-color="#9104FF"/>
<stop offset="0.46" stop-color="#B410CF"/>
<stop offset="1" stop-color="#ED7A15"/>
</linearGradient>
<linearGradient id="paint14_linear_536_223" x1="593.06" y1="98.64" x2="635.42" y2="88.19" gradientUnits="userSpaceOnUse">
<stop stop-color="#9104FF"/>
<stop offset="0.46" stop-color="#B410CF"/>
<stop offset="1" stop-color="#ED7A15"/>
</linearGradient>
<linearGradient id="paint15_linear_536_223" x1="633.22" y1="80.24" x2="639" y2="80.24" gradientUnits="userSpaceOnUse">
<stop stop-color="#B410CF"/>
<stop offset="1" stop-color="#9104FF"/>
</linearGradient>
<linearGradient id="paint16_linear_536_223" x1="628.22" y1="98.17" x2="638.91" y2="98.17" gradientUnits="userSpaceOnUse">
<stop stop-color="#B410CF"/>
<stop offset="1" stop-color="#9104FF"/>
</linearGradient>
<linearGradient id="paint17_linear_536_223" x1="592.49" y1="74.9501" x2="603.18" y2="74.9501" gradientUnits="userSpaceOnUse">
<stop stop-color="#B410CF"/>
<stop offset="1" stop-color="#9104FF"/>
</linearGradient>
<linearGradient id="paint18_linear_536_223" x1="592.53" y1="92.9" x2="598.32" y2="92.9" gradientUnits="userSpaceOnUse">
<stop stop-color="#B410CF"/>
<stop offset="1" stop-color="#9104FF"/>
</linearGradient>
<linearGradient id="paint19_linear_536_223" x1="302.508" y1="102.178" x2="521.606" y2="59.4052" gradientUnits="userSpaceOnUse">
<stop offset="0.21" stop-opacity="0"/>
<stop offset="0.97" stop-color="#C84D71"/>
</linearGradient>
<linearGradient id="paint20_linear_536_223" x1="342.575" y1="69.8134" x2="507.408" y2="86.7474" gradientUnits="userSpaceOnUse">
<stop stop-color="#9104FF"/>
<stop offset="0.46" stop-color="#B410CF"/>
<stop offset="1" stop-color="#ED7A15"/>
</linearGradient>
<linearGradient id="paint21_linear_536_223" x1="354.944" y1="66.9323" x2="363" y2="66.8954" gradientUnits="userSpaceOnUse">
<stop stop-color="#B410CF"/>
<stop offset="1" stop-color="#9104FF"/>
</linearGradient>
<linearGradient id="paint22_linear_536_223" x1="366.088" y1="66.8811" x2="374.143" y2="66.8442" gradientUnits="userSpaceOnUse">
<stop stop-color="#B410CF"/>
<stop offset="1" stop-color="#9104FF"/>
</linearGradient>
<linearGradient id="paint23_linear_536_223" x1="377.231" y1="66.8295" x2="385.297" y2="66.7936" gradientUnits="userSpaceOnUse">
<stop stop-color="#B410CF"/>
<stop offset="1" stop-color="#9104FF"/>
</linearGradient>
<linearGradient id="paint24_linear_536_223" x1="302.792" y1="164.091" x2="520.781" y2="121.546" gradientUnits="userSpaceOnUse">
<stop offset="0.21" stop-opacity="0"/>
<stop offset="0.97" stop-color="#C84D71"/>
</linearGradient>
<linearGradient id="paint25_linear_536_223" x1="342.858" y1="131.737" x2="507.691" y2="148.671" gradientUnits="userSpaceOnUse">
<stop stop-color="#9104FF"/>
<stop offset="0.46" stop-color="#B410CF"/>
<stop offset="1" stop-color="#ED7A15"/>
</linearGradient>
<linearGradient id="paint26_linear_536_223" x1="355.228" y1="128.846" x2="363.284" y2="128.809" gradientUnits="userSpaceOnUse">
<stop stop-color="#B410CF"/>
<stop offset="1" stop-color="#9104FF"/>
</linearGradient>
<linearGradient id="paint27_linear_536_223" x1="366.372" y1="128.794" x2="374.428" y2="128.757" gradientUnits="userSpaceOnUse">
<stop stop-color="#B410CF"/>
<stop offset="1" stop-color="#9104FF"/>
</linearGradient>
<linearGradient id="paint28_linear_536_223" x1="377.516" y1="128.743" x2="385.581" y2="128.707" gradientUnits="userSpaceOnUse">
<stop stop-color="#B410CF"/>
<stop offset="1" stop-color="#9104FF"/>
</linearGradient>
<linearGradient id="paint29_linear_536_223" x1="-33.6398" y1="147.46" x2="213.63" y2="69.32" gradientUnits="userSpaceOnUse">
<stop offset="0.35" stop-opacity="0"/>
<stop offset="0.72" stop-color="#C84D71"/>
</linearGradient>
<linearGradient id="paint30_linear_536_223" x1="12.3599" y1="113.57" x2="132.58" y2="113.57" gradientUnits="userSpaceOnUse">
<stop stop-color="#9104FF"/>
<stop offset="0.62" stop-color="#B410CF"/>
<stop offset="1" stop-color="#ED7A15"/>
</linearGradient>
<linearGradient id="paint31_linear_536_223" x1="21.6602" y1="86.03" x2="29.9202" y2="86.03" gradientUnits="userSpaceOnUse">
<stop stop-color="#B410CF"/>
<stop offset="1" stop-color="#9104FF"/>
</linearGradient>
<linearGradient id="paint32_linear_536_223" x1="32.04" y1="86.03" x2="40.29" y2="86.03" gradientUnits="userSpaceOnUse">
<stop stop-color="#B410CF"/>
<stop offset="1" stop-color="#9104FF"/>
</linearGradient>
<linearGradient id="paint33_linear_536_223" x1="42.4102" y1="86.03" x2="50.6702" y2="86.03" gradientUnits="userSpaceOnUse">
<stop stop-color="#B410CF"/>
<stop offset="1" stop-color="#9104FF"/>
</linearGradient>
<linearGradient id="paint34_linear_536_223" x1="-14.3099" y1="188.76" x2="89.1901" y2="60.08" gradientUnits="userSpaceOnUse">
<stop offset="0.09" stop-opacity="0"/>
<stop offset="0.91" stop-color="#C84D71"/>
</linearGradient>
<linearGradient id="paint35_linear_536_223" x1="0.500096" y1="144.64" x2="41.7501" y2="144.64" gradientUnits="userSpaceOnUse">
<stop stop-color="#9104FF"/>
<stop offset="0.46" stop-color="#B410CF"/>
<stop offset="1" stop-color="#ED7A15"/>
</linearGradient>
<linearGradient id="paint36_linear_536_223" x1="709.01" y1="163.81" x2="832.66" y2="134.64" gradientUnits="userSpaceOnUse">
<stop offset="0.28" stop-opacity="0"/>
<stop offset="1" stop-color="#C84D71"/>
</linearGradient>
<linearGradient id="paint37_linear_536_223" x1="708.6" y1="147.1" x2="830.73" y2="118.29" gradientUnits="userSpaceOnUse">
<stop offset="0.28" stop-opacity="0"/>
<stop offset="1" stop-color="#C84D71"/>
</linearGradient>
<linearGradient id="paint38_linear_536_223" x1="708.94" y1="130.55" x2="833.41" y2="101.18" gradientUnits="userSpaceOnUse">
<stop offset="0.28" stop-opacity="0"/>
<stop offset="1" stop-color="#C84D71"/>
</linearGradient>
<linearGradient id="paint39_linear_536_223" x1="708.94" y1="114.1" x2="828.25" y2="85.95" gradientUnits="userSpaceOnUse">
<stop offset="0.28" stop-opacity="0"/>
<stop offset="1" stop-color="#C84D71"/>
</linearGradient>
<linearGradient id="paint40_linear_536_223" x1="841.08" y1="121.21" x2="730.18" y2="121.21" gradientUnits="userSpaceOnUse">
<stop stop-color="#ED7A15"/>
<stop offset="0.54" stop-color="#B410CF"/>
<stop offset="1" stop-color="#9104FF"/>
</linearGradient>
<linearGradient id="paint41_linear_536_223" x1="846.5" y1="137.41" x2="731.05" y2="137.41" gradientUnits="userSpaceOnUse">
<stop stop-color="#ED7A15"/>
<stop offset="0.54" stop-color="#B410CF"/>
<stop offset="1" stop-color="#9104FF"/>
</linearGradient>
<linearGradient id="paint42_linear_536_223" x1="844.77" y1="154.18" x2="731.14" y2="154.18" gradientUnits="userSpaceOnUse">
<stop stop-color="#ED7A15"/>
<stop offset="0.54" stop-color="#B410CF"/>
<stop offset="1" stop-color="#9104FF"/>
</linearGradient>
<linearGradient id="paint43_linear_536_223" x1="841.24" y1="90.67" x2="729.39" y2="90.67" gradientUnits="userSpaceOnUse">
<stop stop-color="#ED7A15"/>
<stop offset="0.54" stop-color="#B410CF"/>
<stop offset="1" stop-color="#9104FF"/>
</linearGradient>
<linearGradient id="paint44_linear_536_223" x1="674.66" y1="112.39" x2="826.06" y2="66.3201" gradientUnits="userSpaceOnUse">
<stop offset="0.28" stop-opacity="0"/>
<stop offset="1" stop-color="#C84D71"/>
</linearGradient>
<linearGradient id="paint45_linear_536_223" x1="843.41" y1="105" x2="733.39" y2="105" gradientUnits="userSpaceOnUse">
<stop stop-color="#ED7A15"/>
<stop offset="0.54" stop-color="#B410CF"/>
<stop offset="1" stop-color="#9104FF"/>
</linearGradient>
<linearGradient id="paint46_linear_536_223" x1="358.301" y1="165.603" x2="547.63" y2="215.407" gradientUnits="userSpaceOnUse">
<stop stop-color="#9104FF"/>
<stop offset="1" stop-color="#ED7D15"/>
</linearGradient>
<clipPath id="clip0_536_223">
<rect width="827" height="129" fill="white" transform="translate(0 47)"/>
</clipPath>
</defs>
</svg>
